<svg fill="#fff" viewBox="-2.4 -2.4 28.80 28.80" xmlns="http://www.w3.org/2000/svg" stroke="#000000" transform="matrix(1, 0, 0, 1, 0, 0)"><g id="SVGRepo_bgCarrier" stroke-width="0"></g><g id="SVGRepo_tracerCarrier" stroke-linecap="round" stroke-linejoin="round" stroke="#CCCCCC" stroke-width="0.192"></g><g id="SVGRepo_iconCarrier"><path d="M16,4a1,1,0,0,0-1-1H9A1,1,0,0,0,8,4v7h8Z"></path><path d="M3,14v6a1,1,0,0,0,1,1h7V13H4A1,1,0,0,0,3,14Z"></path><path d="M20,13H13v8h7a1,1,0,0,0,1-1V14A1,1,0,0,0,20,13Z"></path></g></svg>